<?xml version="1.0" encoding="UTF-8" standalone="no"?>
<svg
   xmlns:dc="http://purl.org/dc/elements/1.1/"
   xmlns:cc="http://creativecommons.org/ns#"
   xmlns:rdf="http://www.w3.org/1999/02/22-rdf-syntax-ns#"
   xmlns:svg="http://www.w3.org/2000/svg"
   xmlns="http://www.w3.org/2000/svg"
   xmlns:sodipodi="http://sodipodi.sourceforge.net/DTD/sodipodi-0.dtd"
   xmlns:inkscape="http://www.inkscape.org/namespaces/inkscape"
   version="1.1"
   id="svg2"
   xml:space="preserve"
   width="2000"
   height="1333.3333"
   viewBox="0 0 2000 1333.3333"
   sodipodi:docname="0-04.eps"><metadata
     id="metadata8"><rdf:RDF><cc:Work
         rdf:about=""><dc:format>image/svg+xml</dc:format><dc:type
           rdf:resource="http://purl.org/dc/dcmitype/StillImage" /></cc:Work></rdf:RDF></metadata><defs
     id="defs6" /><sodipodi:namedview
     pagecolor="#ffffff"
     bordercolor="#666666"
     borderopacity="1"
     objecttolerance="10"
     gridtolerance="10"
     guidetolerance="10"
     inkscape:pageopacity="0"
     inkscape:pageshadow="2"
     inkscape:window-width="640"
     inkscape:window-height="480"
     id="namedview4" /><g
     id="g10"
     inkscape:groupmode="layer"
     inkscape:label="ink_ext_XXXXXX"
     transform="matrix(1.3333333,0,0,-1.3333333,0,1333.3333)"><g
       id="g12"
       transform="scale(0.1)"><path
         d="m 13436.2,1583.02 c 0,-314.42 -2639.6,-569.29 -5895.67,-569.29 -3256.11,0 -5895.71,254.87 -5895.71,569.29 0,314.41 2639.6,569.28 5895.71,569.28 3256.07,0 5895.67,-254.87 5895.67,-569.28"
         style="fill:#b2e0f7;fill-opacity:1;fill-rule:nonzero;stroke:none"
         id="path14" /><path
         d="m 13309.7,3154.52 c -8.9,-252.12 -185.8,-459.61 -383.7,-545.02 -198,-85.4 -433.4,-102.13 -643.9,-104.36 -343.2,-3.47 -809.8,4.21 -1247.3,14.63 -692.4,16.48 -1311.87,39.77 -1254.12,36.32 l -4643.02,-16.75 c -174.65,-13.75 -365.67,-23.18 -563.48,-29.62 -739.51,-23.68 -1576.45,-4.58 -2025.65,-4.58 -563.86,0 -794.29,438.66 -839.17,915.4 -38.04,404.82 309.03,718.43 638.12,783.37 181.96,35.94 367.52,25.79 552.34,22.56 149.48,-2.61 298.48,-0.62 444.73,34.2 162.01,38.68 351.28,197.1 297.87,387.99 -45.49,162.37 -223.86,184.55 -363.92,170.78 -54.56,-5.31 -109.94,-11.27 -165.73,-17.2 -444.76,-47.48 -919.35,-90.86 -1250.56,255.47 -269.6,281.99 -356.74,772.72 -260.55,1190.19 96.19,417.58 352.27,761.31 655.58,986.29 176.88,131.13 382.02,239.73 483.29,460.1 88.89,193 79.09,436.93 170.57,628.2 100.89,210.97 222.86,462.1 442.51,562.73 184.18,84.42 192.25,100.79 494.44,100.79 h 356.99 c 0,0 297.48,0 753.5,0 h 4305.39 c 414.86,0 885.67,4.59 1301.57,-24.66 12.8,-1 25.6,-1.87 38.2,-2.86 547.6,-41.53 992.9,-144.77 1076.9,-399.5 178.4,-540.56 -820.2,-468.53 -824.9,-638.48 -5.6,-196.34 702.1,-236.98 863,-208.49 160.9,28.39 313.5,110.44 475.3,128.42 389.1,43.25 750.8,-303.93 918.4,-727.36 167.6,-423.3 180.9,-908.33 179.2,-1377 -0.9,-259.42 -6.3,-524.57 -80.9,-768.12 -74.5,-243.57 -231.1,-465.59 -440.9,-528.42 -148.2,-44.49 -303.4,-6.19 -456.6,-2.11 -43.6,1.13 -86.9,-0.36 -129.9,-7.44 -194.5,-31.72 -393.6,-283.22 -287.4,-481.05 72.9,-135.61 233.2,-142.3 367.4,-133.5 28.5,1.87 57.2,3.73 85.8,5.33 196,11.03 394.9,11.53 577.6,-70.52 209.4,-94.09 392.6,-327.87 383,-595.73"
         style="fill:#b2e0f7;fill-opacity:1;fill-rule:nonzero;stroke:none"
         id="path16" /><path
         d="m 12218.3,2522.22 c -2821.44,-6.55 -6425.99,-8.83 -9268.73,-15.94 l -40.12,-0.06 c -194.36,565.91 -151.36,1199.69 8.07,1787.87 159.82,587.64 496.76,1066.99 903.97,1284.46 325.44,174.04 701.71,196.83 969.12,518.03 648.22,778.55 -158.71,1844.57 1594.47,2458.2 2192.03,767.21 1976.78,-1976.08 3081.38,-2312.95 277.91,-84.76 559.64,-6.47 842.14,71.82 255,70.64 510.6,141.28 764.7,92.16 616.4,-119.39 1085.3,-947.85 1221.2,-1833.56 106.4,-692.2 45,-1357.41 -77.8,-2049.51 l 1.6,-0.52"
         style="fill:#d1ecfa;fill-opacity:1;fill-rule:nonzero;stroke:none"
         id="path18" /><path
         d="M 8611.47,3207.5 H 12827.1 V 5492.65 H 8611.47 Z"
         style="fill:#4f7080;fill-opacity:1;fill-rule:nonzero;stroke:none"
         id="path20" /><path
         d="M 8737.93,3327.34 H 12686.4 V 5372.82 H 8737.93 Z"
         style="fill:#9ecfed;fill-opacity:1;fill-rule:nonzero;stroke:none"
         id="path22" /><path
         d="m 11277.5,4531.06 c -13.9,0 -26.9,-3.26 -38.5,-9.02 -0.4,63.54 -52,114.95 -115.6,114.95 0,126.06 -102.2,228.23 -228.3,228.23 -74.3,0 -140.3,-35.52 -182,-90.53 -25.5,16.46 -55.9,26.02 -88.6,26.02 -90.4,0 -163.7,-73.3 -163.7,-163.72 0,-14.11 1.8,-27.8 5.1,-40.87 -6,0.9 -12.3,1.38 -18.6,1.38 -68.6,0 -124.2,-55.61 -124.2,-124.23 0,-68.61 55.6,-124.23 124.2,-124.23 185.2,0 311.4,8.66 830.2,8.66 47.9,0 86.7,38.81 86.7,86.68 0,47.88 -38.8,86.68 -86.7,86.68"
         style="fill:#c5e2f4;fill-opacity:1;fill-rule:nonzero;stroke:none"
         id="path24" /><path
         d="m 12686.4,5230.87 v -503.13 c -257,-2.48 -362,-7.24 -499.5,-7.24 -68.6,0 -124.2,55.59 -124.2,124.24 0,68.61 55.6,124.2 124.2,124.2 6.3,0 12.6,-0.44 18.7,-1.37 -3.4,13.08 -5.2,26.76 -5.2,40.87 0,90.44 73.3,163.74 163.8,163.74 32.6,0 63,-9.59 88.6,-26.07 41.6,55.02 107.6,90.58 182,90.58 17.7,0 35,-2.03 51.6,-5.82"
         style="fill:#c5e2f4;fill-opacity:1;fill-rule:nonzero;stroke:none"
         id="path26" /><path
         d="m 9594.02,5120.56 c -8.37,0 -16.56,-0.78 -24.51,-2.26 l 0.04,2.26 c 0,45.33 -36.77,82.08 -82.11,82.08 -9.08,0 -17.79,-1.46 -25.96,-4.18 -22.71,68.95 -87.63,118.71 -164.18,118.71 -71.74,0 -133.28,-43.71 -159.41,-105.94 -27.23,3.56 -55.76,-5.09 -76.68,-26.01 -14.98,-14.98 -23.67,-33.86 -26.09,-53.37 -9.26,2.01 -18.9,3.11 -28.79,3.11 -73.99,0 -133.97,-59.99 -133.97,-133.96 0,-74 59.98,-133.97 133.97,-133.97 592.75,0 721.66,-28.81 721.66,119.56 0,73.98 -59.96,133.97 -133.97,133.97"
         style="fill:#c5e2f4;fill-opacity:1;fill-rule:nonzero;stroke:none"
         id="path28" /><path
         d="m 9322.27,4491.51 v 318.43 H 8941.6 V 3327.36 h 287.21 93.46 262.15 v 1164.15 h -262.15"
         style="fill:#78aac5;fill-opacity:1;fill-rule:nonzero;stroke:none"
         id="path30" /><path
         d="m 10614.4,3943.17 v 180.38 l -389.8,243.88 V 3327.36 h 389.8 377.3 v 615.81 h -377.3"
         style="fill:#78aac5;fill-opacity:1;fill-rule:nonzero;stroke:none"
         id="path32" /><path
         d="m 10009.9,4293.02 v 269.72 h -139.57 v 222.13 h -84.3 v -222.13 h -139.59 v -269.72 h -62.02 V 3327.36 H 10072 v 965.66 h -62.1"
         style="fill:#78aac5;fill-opacity:1;fill-rule:nonzero;stroke:none"
         id="path34" /><path
         d="m 11592.3,3327.36 v 1434.87 h 305.4 l 232.5,-232.51 h 556.2 V 3327.36 h -1094.1"
         style="fill:#78aac5;fill-opacity:1;fill-rule:nonzero;stroke:none"
         id="path36" /><path
         d="m 11761.1,3327.36 h -257.2 l 88.4,72.11 v -72.11 h 168.8 m -1273.3,0 H 10088 l 136.6,111.48 v -111.48 h 263.2 m 503.9,411.24 v 204.57 h -149.2 l 749.8,611.91 v -326.29 l -600.6,-490.19"
         style="fill:#bbddf2;fill-opacity:1;fill-rule:nonzero;stroke:none"
         id="path38" /><path
         d="m 10487.8,3327.36 h -263.2 v 111.48 l 617.9,504.33 h 149.2 V 3738.6 l -503.9,-411.24"
         style="fill:#a1c4d7;fill-opacity:1;fill-rule:nonzero;stroke:none"
         id="path40" /><path
         d="m 8737.93,3327.36 h -0.04 v 393.49 l 0.04,-393.51"
         style="fill:#849ba6;fill-opacity:1;fill-rule:nonzero;stroke:none"
         id="path42" /><path
         d="m 9205.14,3327.36 h -467.21 v 393.52 l 203.67,166.23 v -559.75 h 263.54 m 379.28,309.55 v 774.84 l 62.02,50.62 v -169.35 h -62.02 v -656.11 m 487.58,397.91 v 258.2 h -62.1 v 269.72 h -139.57 v 82.37 l 891.67,727.71 h 949.3 l -678.5,-553.77 c -38.3,28.98 -85.9,46.17 -137.7,46.17 -74.3,0 -140.3,-35.52 -182,-90.53 -25.5,16.46 -55.9,26.02 -88.6,26.02 -90.4,0 -163.7,-73.3 -163.7,-163.72 0,-14.11 1.8,-27.8 5.1,-40.87 -6,0.9 -12.3,1.38 -18.6,1.38 -68.6,0 -124.2,-55.61 -124.2,-124.23 0,-68.61 55.6,-124.23 124.2,-124.23 3.3,0 6.5,0.01 9.7,0.01 l -88.1,-71.89 -144.3,90.27 V 4159.41 L 10072,4034.82"
         style="fill:#bbddf2;fill-opacity:1;fill-rule:nonzero;stroke:none"
         id="path44" /><path
         d="m 10447.3,4349.04 c -68.6,0 -124.2,55.62 -124.2,124.23 0,68.62 55.6,124.23 124.2,124.23 6.3,0 12.6,-0.48 18.6,-1.38 -3.3,13.07 -5.1,26.76 -5.1,40.87 0,90.42 73.3,163.72 163.7,163.72 32.7,0 63.1,-9.56 88.6,-26.02 41.7,55.01 107.7,90.53 182,90.53 51.8,0 99.4,-17.19 137.7,-46.17 l -575.8,-470 c -3.2,0 -6.4,-0.01 -9.7,-0.01"
         style="fill:#d7ebf7;fill-opacity:1;fill-rule:nonzero;stroke:none"
         id="path46" /><path
         d="m 9786.03,4562.74 h -16.61 l 16.61,13.57 v -13.57"
         style="fill:#bbddf2;fill-opacity:1;fill-rule:nonzero;stroke:none"
         id="path48" /><path
         d="M 9205.14,3327.36 H 8941.6 v 559.75 l 642.82,524.64 v -774.84 l -379.28,-309.55"
         style="fill:#a1c4d7;fill-opacity:1;fill-rule:nonzero;stroke:none"
         id="path50" /><path
         d="m 10224.6,4159.41 v 208.02 l 144.3,-90.27 -144.3,-117.75"
         style="fill:#a1c4d7;fill-opacity:1;fill-rule:nonzero;stroke:none"
         id="path52" /><path
         d="m 9584.42,3636.91 v 656.11 h 62.02 v 169.35 l 122.98,100.37 h 16.61 v 13.57 l 84.3,68.8 v -82.37 h 139.57 v -269.72 h 62.1 v -258.2 l -487.58,-397.91"
         style="fill:#a1c4d7;fill-opacity:1;fill-rule:nonzero;stroke:none"
         id="path54" /><path
         d="m 12054.2,4605.77 -156.5,156.46 h -51.6 l 361.8,295.33 c -4.8,-15.51 -7.5,-32.01 -7.5,-49.12 0,-14.11 1.8,-27.79 5.2,-40.87 -6.1,0.93 -12.4,1.37 -18.7,1.37 -68.6,0 -124.2,-55.59 -124.2,-124.2 0,-68.65 55.6,-124.24 124.2,-124.24 2.6,0 5.2,0 7.8,0 l -140.5,-114.73"
         style="fill:#bbddf2;fill-opacity:1;fill-rule:nonzero;stroke:none"
         id="path56" /><path
         d="m 12686.4,5121.76 v 251.06 -251.03"
         style="fill:#849ba6;fill-opacity:1;fill-rule:nonzero;stroke:none"
         id="path58" /><path
         d="m 12452.8,5146.11 c -25.6,16.48 -56,26.07 -88.6,26.07 -5.7,0 -11.4,-0.29 -16.9,-0.86 l 246.9,201.5 h 92.2 v -141.95 c -16.6,3.79 -33.9,5.82 -51.6,5.82 -74.4,0 -140.4,-35.56 -182,-90.58"
         style="fill:#bbddf2;fill-opacity:1;fill-rule:nonzero;stroke:none"
         id="path60" /><path
         d="m 12186.9,4720.5 c -68.6,0 -124.2,55.59 -124.2,124.24 0,68.61 55.6,124.2 124.2,124.2 6.3,0 12.6,-0.44 18.7,-1.37 -3.4,13.08 -5.2,26.76 -5.2,40.87 0,17.11 2.7,33.61 7.5,49.12 l 139.4,113.76 c 5.5,0.57 11.2,0.86 16.9,0.86 32.6,0 63,-9.59 88.6,-26.07 41.6,55.02 107.6,90.58 182,90.58 17.7,0 35,-2.03 51.6,-5.82 v 0 -109.11 l -491.7,-401.26 c -2.6,0 -5.2,0 -7.8,0"
         style="fill:#d7ebf7;fill-opacity:1;fill-rule:nonzero;stroke:none"
         id="path62" /><path
         d="m 8737.89,4754.11 v 248.88 l 0.04,0.03 v -248.88 l -0.04,-0.03"
         style="fill:#849ba6;fill-opacity:1;fill-rule:nonzero;stroke:none"
         id="path64" /><path
         d="m 8737.93,4754.14 v 248.88 l 453.09,369.8 h 304.94 l -103.31,-84.31 c -27.33,18.11 -60.11,28.66 -95.35,28.66 -71.74,0 -133.28,-43.71 -159.41,-105.94 -3.97,0.52 -7.97,0.78 -11.96,0.78 -23.42,0 -46.85,-8.92 -64.72,-26.79 -14.98,-14.98 -23.67,-33.86 -26.09,-53.37 -9.26,2.01 -18.9,3.11 -28.79,3.11 -73.99,0 -133.97,-59.99 -133.97,-133.96 0,-39.92 17.45,-75.75 45.14,-100.29 l -179.57,-146.57"
         style="fill:#bbddf2;fill-opacity:1;fill-rule:nonzero;stroke:none"
         id="path66" /><path
         d="m 8917.5,4900.71 c -27.69,24.54 -45.14,60.37 -45.14,100.29 0,73.97 59.98,133.96 133.97,133.96 9.89,0 19.53,-1.1 28.79,-3.11 2.42,19.51 11.11,38.39 26.09,53.37 17.87,17.87 41.3,26.79 64.72,26.79 3.99,0 7.99,-0.26 11.96,-0.78 26.13,62.23 87.67,105.94 159.41,105.94 35.24,0 68.02,-10.55 95.35,-28.66 l -475.15,-387.8"
         style="fill:#d7ebf7;fill-opacity:1;fill-rule:nonzero;stroke:none"
         id="path68" /><path
         d="m 11761.1,3327.36 h -168.8 v 72.11 l 1094.1,893.04 v -209.92 l -925.3,-755.23 m -168.8,901.43 v 326.29 l 253.8,207.15 h 51.6 l 156.5,-156.46 -461.9,-376.98"
         style="fill:#a1c4d7;fill-opacity:1;fill-rule:nonzero;stroke:none"
         id="path70" /><path
         d="m 8681.57,2288.31 c -9.01,-72.58 -11.84,-136.98 -9.84,-196.23 5.01,-151.32 41.54,-270.14 89.11,-411.44 l -24.04,-117.62 h 374.08 l -274.63,135.81 c 0,0 53.22,297.16 76.25,504.89 6,52.73 9.84,99.6 10.33,134.65 3.52,200.06 -188.19,738.64 -200.54,773.51 l -0.51,1.34 -0.16,0.51 h -313.68 c -109.13,-411.81 98.44,-482.53 273.63,-825.42"
         style="fill:#fdc5ae;fill-opacity:1;fill-rule:nonzero;stroke:none"
         id="path72" /><path
         d="m 8487.98,2593.4 c 1.33,-1.85 2.51,-3.84 3.84,-5.68 55.88,-83.42 124.96,-172.86 189.7,-299.49 -7.54,-60.68 -22.05,-382.75 -33.42,-494.84 -1.28,-12.55 8.64,-23.4 21.24,-23.4 h 201.67 c 11.06,0 20.26,8.41 21.11,19.44 8.01,104.82 30.21,516.66 30.67,548.85 3.51,200.06 -188.2,738.65 -200.55,773.54 l -0.51,1.5 -0.16,0.31 h -313.68 c -67.91,-256.11 -13.18,-380.4 80.09,-520.23"
         style="fill:#266de7;fill-opacity:1;fill-rule:nonzero;stroke:none"
         id="path74" /><path
         d="m 8491.82,2587.72 c 55.88,-83.42 124.96,-172.86 189.7,-299.49 -7.54,-60.68 -22.05,-382.75 -33.42,-494.84 -1.28,-12.55 8.64,-23.4 21.24,-23.4 h 21.85 l 43.77,538.55 -184.58,417.17 -62.4,-132.31 c 1.33,-1.85 2.51,-3.84 3.84,-5.68"
         style="fill:#2a57cb;fill-opacity:1;fill-rule:nonzero;stroke:none"
         id="path76" /><path
         d="m 8256.33,1482.44 -189.27,219.39 c 0,0 138.99,217.08 251.44,361.39 26.7,34.55 51.89,64.75 73.42,87.1 154,159.51 234.43,963.41 234.43,963.41 H 8371.73 C 8172.12,2930.22 8222.38,2677.58 8216.5,2428 c -2.05,-86.51 -29.86,-169.94 -76.58,-242.77 -9.41,-14.66 -18.27,-29.52 -26.64,-44.75 -58.23,-106.27 -92.77,-230.92 -124.64,-435.66 l -39.41,-132.87 307.1,-89.51"
         style="fill:#fdc5ae;fill-opacity:1;fill-rule:nonzero;stroke:none"
         id="path78" /><path
         d="m 7982.24,1869.13 c -4.9,-10.77 -0.03,-23.4 10.79,-28.22 l 36.94,-16.54 110.97,-49.69 c 6.21,-2.78 13.44,-0.8 17.23,4.84 42.98,63.66 213.51,349.74 233.71,370.71 154,159.52 253.43,966.58 253.43,966.58 l -262.79,-3 -10.84,-0.18 c -9.84,-9 -19.02,-18.35 -27.7,-27.69 -161.17,-174.19 -124.8,-403.94 -127.13,-632.86 -0.83,-98.44 -32.71,-194.73 -92.78,-272.63 -7.65,-9.97 -110.16,-241.44 -141.83,-311.32"
         style="fill:#266de7;fill-opacity:1;fill-rule:nonzero;stroke:none"
         id="path80" /><path
         d="m 7993.03,1840.91 36.94,-16.54 c 84.42,158.35 245.11,473.71 245.11,473.71 0,0 8.34,311.83 3.33,453.67 -5,141.81 142.66,284.97 142.66,284.97 l -77.09,49.22 c -161.17,-174.19 -124.8,-403.94 -127.13,-632.86 -0.83,-98.44 -32.71,-194.73 -92.78,-272.63 -7.65,-9.97 -110.16,-241.44 -141.83,-311.32 -4.9,-10.77 -0.03,-23.4 10.79,-28.22"
         style="fill:#2a57cb;fill-opacity:1;fill-rule:nonzero;stroke:none"
         id="path82" /><path
         d="m 8643.69,3650 c 0,0 121.31,-90.95 234.6,-126.98 24.85,-7.85 49.39,-13.2 72.08,-14.2 143.32,-6.83 414.45,224.75 414.45,224.75 85.61,-16.35 166.19,39.9 166.04,100.94 -0.18,35.89 -98.28,-37.7 -135.51,-23.02 0,0 9.03,65.92 -19,72.08 -16.02,3.51 -39.39,-40.21 -50.57,-88.58 -138.98,-21.7 -223.4,-55.25 -358.22,-98.79 -7.84,5.67 -19.2,13.18 -33.05,21.68 -55.39,34.39 -147.65,86.95 -191.7,116.47 L 8643.69,3650"
         style="fill:#fdc5ae;fill-opacity:1;fill-rule:nonzero;stroke:none"
         id="path84" /><path
         d="m 8643.69,3650 c 0,0 91.15,-112.35 204.44,-148.39 l 90.74,222.13 c -55.4,34.36 -156.86,97.1 -200.92,126.62 L 8643.69,3650"
         style="fill:#2a57cb;fill-opacity:1;fill-rule:nonzero;stroke:none"
         id="path86" /><path
         d="m 8745.82,3520.93 c 1.06,-101.99 -24.14,-407.27 -24.14,-407.27 h -349.94 c 0,0 -146.08,444.14 -126.33,594.9 8.77,67 77.38,152.51 186.66,195.51 l 131.24,-0.74 c 84.3,-6.37 143.66,-37.11 196.96,-90.43 0,0 -15.38,-202.31 -14.45,-291.97"
         style="fill:#3e3279;fill-opacity:1;fill-rule:nonzero;stroke:none"
         id="path88" /><path
         d="m 8745.82,3520.93 c 1.06,-101.99 -24.14,-407.27 -24.14,-407.27 h -349.94 c 0,0 -146.08,444.14 -126.33,594.9 8.77,67 77.38,152.51 186.66,195.51 l 131.24,-0.74 c 84.3,-6.37 143.66,-37.11 196.96,-90.43 0,0 -15.38,-202.31 -14.45,-291.97"
         style="fill:#3e3279;fill-opacity:1;fill-rule:nonzero;stroke:none"
         id="path90" /><path
         d="m 8242.36,3632.55 c 2.17,-160.51 41.72,-438.82 56.74,-538.94 2.17,-14.33 10.18,-26.85 21.53,-34.86 6.17,-4.17 13.51,-7.34 21.35,-8.34 71.93,-10.85 142.33,-16.69 210.9,-16.36 26.71,0 53.06,0.84 79.09,2.67 34.38,2.34 68.24,6.16 101.44,12.02 22.86,4 40.38,22.52 42.89,45.37 6.67,61.24 19.19,188.55 25.69,320.53 1.66,31.38 2.83,62.91 3.67,93.94 2.5,102.28 -0.33,198.39 -14.35,258.95 -21.86,93.78 -126.81,135.64 -228.09,135.64 l -131.13,0.86 c -125.48,-32.56 -178.04,-128.49 -186.71,-195.56 -2.68,-19.87 -3.5,-45.88 -3.02,-75.92"
         style="fill:#266de7;fill-opacity:1;fill-rule:nonzero;stroke:none"
         id="path92" /><path
         d="m 8432.14,3904.09 c 25.99,-26 51.18,-40.38 75.2,-38.73 19.48,1.35 38.17,13.19 55.93,37.91 l -11.17,90.76 -4.68,38.21 h -104.11 l -2.01,-23.7 -9.16,-104.45"
         style="fill:#fdc5ae;fill-opacity:1;fill-rule:nonzero;stroke:none"
         id="path94" /><path
         d="m 8609.33,4134.34 c 0,0 92.97,164.75 -17.21,266.7 -104.82,96.98 -233.6,-27.38 -233.6,-27.38 0,0 -81.43,-9.28 -90.97,-104.8 -14.38,-143.64 70.89,-186.29 131.61,-208.88 147.21,-54.77 210.17,74.36 210.17,74.36"
         style="fill:#362b25;fill-opacity:1;fill-rule:nonzero;stroke:none"
         id="path96" /><path
         d="m 8631.97,3036.72 c 34.38,2.34 68.24,6.16 101.44,12.02 22.86,4 40.38,22.52 42.89,45.37 6.67,61.24 19.19,188.55 25.69,320.53 -64.24,-124.97 -48.71,-287.15 -170.02,-377.92"
         style="fill:#2a57cb;fill-opacity:1;fill-rule:nonzero;stroke:none"
         id="path98" /><path
         d="m 8836.25,1698.83 c 120.34,-41.46 262.68,-28.94 274.63,-135.81 H 8736.8 c -5.96,45.26 0,90.54 17.94,135.81 h 81.51"
         style="fill:#362b25;fill-opacity:1;fill-rule:nonzero;stroke:none"
         id="path100" /><path
         d="m 8067.06,1701.83 c 95.11,-84.57 237.39,-144.23 207.28,-247.46 l -345.26,115.42 c 11.93,44.09 27.89,114.86 61.88,149.74 l 76.1,-17.7"
         style="fill:#362b25;fill-opacity:1;fill-rule:nonzero;stroke:none"
         id="path102" /><path
         d="m 8441.3,4008.54 c 16.02,-19.53 32.88,-29.17 56.4,-29.84 20.53,-0.67 41.55,1.82 54.4,15.33 l -4.68,38.21 h -104.11 l -2.01,-23.7"
         style="fill:#be9483;fill-opacity:1;fill-rule:nonzero;stroke:none"
         id="path104" /><path
         d="m 8555.35,4246.03 c 42.64,4.12 78.26,-31.76 72.95,-74.27 -8.98,-71.91 -35.52,-160 -111.44,-161.94 -128.66,-3.3 -158.34,127.01 -158.34,127.01 0,0 43.45,84.13 30.25,148.46 41.48,-36.31 108.53,-44.9 166.58,-39.26"
         style="fill:#fdc5ae;fill-opacity:1;fill-rule:nonzero;stroke:none"
         id="path106" /><path
         d="m 8980.66,2951.11 -423.41,253.6 339.81,567.38 423.41,-253.6 -339.81,-567.38"
         style="fill:#314f5d;fill-opacity:1;fill-rule:nonzero;stroke:none"
         id="path108" /><path
         d="m 8976.5,2991.85 -381.36,228.41 306.05,511.08 381.41,-228.42 -306.1,-511.07"
         style="fill:#c3d5dd;fill-opacity:1;fill-rule:nonzero;stroke:none"
         id="path110" /><path
         d="m 8367.39,3528.52 c 0,0 86.1,-130.81 169.02,-206.73 19.86,-18.02 39.37,-32.87 57.57,-42.23 125.96,-64.55 374.29,-48.61 374.29,-48.61 58.57,-81.09 164.15,-87.36 179.53,-46.68 34.54,91.3 -38.95,87.91 -53.67,89.74 0,0 66.38,16.88 49.37,47.75 -16.86,31.02 -133.27,-22.13 -133.27,-22.13 -121.14,66.41 -202.52,106.76 -322.49,128.45 -8.17,14.68 -16.33,29.35 -24.85,43.87 -61.74,104.29 -135.99,201.22 -243.78,272.14 -63.39,-66.24 -69.9,-139.49 -51.72,-215.57"
         style="fill:#fdc5ae;fill-opacity:1;fill-rule:nonzero;stroke:none"
         id="path112" /><path
         d="m 8507.89,3321.76 176.52,157.96 c -61.73,104.27 -177.01,330.6 -283.13,257.24 -141.3,-97.69 23.67,-339.29 106.61,-415.2"
         style="fill:#2a57cb;fill-opacity:1;fill-rule:nonzero;stroke:none"
         id="path114" /><path
         d="m 2509.32,3168.92 c 26.42,4.19 51.42,-8.31 72,-23.79 10.93,-8.21 21.1,-17.56 30.65,-27.34 9.71,-9.94 17.8,-20.72 22.01,-34.11 4.14,-13.13 5.47,-27.02 7.09,-40.64 1.74,-14.67 3.23,-29.37 4.26,-44.11 2.04,-28.74 2.44,-57.68 -0.22,-86.4 -2.64,-28.34 -8.65,-56.11 -18.29,-82.91 -9.81,-27.18 -21.23,-53.59 -29.3,-81.41 -15.8,-54.32 -23.1,-110.82 -25.91,-167.22 -3.18,-64.02 -0.64,-128.13 2.04,-192.09 0.22,-5.08 8.15,-5.11 7.94,0 -4.91,116.72 -9.85,236.46 21.59,350.25 7.88,28.47 19.07,55.51 29.36,83.14 10.23,27.43 16.84,55.67 19.95,84.77 3.17,29.6 2.96,59.45 0.97,89.1 -1.02,15.06 -2.48,30.08 -4.24,45.06 -1.6,13.78 -2.91,27.83 -6.6,41.25 -4.1,14.86 -12.11,27.3 -22.64,38.44 -10.24,10.86 -21.44,21.01 -33.32,30.06 -22.87,17.42 -50.11,30.25 -79.47,25.59 -5.02,-0.8 -2.88,-8.44 2.13,-7.64"
         style="fill:#46bda9;fill-opacity:1;fill-rule:nonzero;stroke:none"
         id="path116" /><path
         d="m 2625.62,2963.32 c -24.14,-30.41 -56.21,-53.52 -89.39,-73.84 -112.56,-68.81 -223.43,-83.1 -377.49,-73.49 -33.34,2.06 -63.11,22.77 -96.04,28.26 53.34,27.07 73.58,91.5 88.65,149.45 9.37,35.72 18.74,71.52 28.03,107.33 18.01,68.88 38.8,142.39 93.41,188.02 43.89,36.68 107.72,49.21 161.06,28.73 52.69,-20.32 91.99,-73.34 93.1,-129.68 l 0.08,-2.23 -6.9,-6.19 c 3.48,0.64 6.98,1.1 10.53,1.35 62.73,4.76 125.99,-46.76 131.47,-110.01 3.41,-38.66 -12.31,-77.32 -36.51,-107.7"
         style="fill:#1a7569;fill-opacity:1;fill-rule:nonzero;stroke:none"
         id="path118" /><path
         d="m 2530.66,3181.03 c -26.17,-10.71 -50.7,-25.41 -72.29,-43.67 -43.5,-36.59 -72.23,-86.27 -107.78,-129.76 -32.15,-39.31 -73.5,-75.8 -125.1,-84.45 -5,-0.88 -7.13,6.74 -2.13,7.61 29.36,4.99 55.78,19.36 78.49,38.26 42.38,35.16 70.72,83.02 104.85,125.66 17.3,21.66 36.5,41.66 58.73,58.41 18.97,14.21 39.69,25.94 61.52,35.01 l 0.08,-2.23 -6.9,-6.19 c 3.48,0.64 6.98,1.1 10.53,1.35"
         style="fill:#46bda9;fill-opacity:1;fill-rule:nonzero;stroke:none"
         id="path120" /><path
         d="m 3176.38,3276.07 c -48.34,1.75 -86.13,-40.88 -110.25,-82.8 -34.76,-60.47 -72.15,-124.61 -143.75,-141.42 -35,-8.19 -73.42,-6.83 -104.84,10.54 -31.76,17.55 -46.36,55.96 -49.3,92.07 -1.91,23.25 1.58,49.77 19.13,64.39 1.03,0.94 2.14,1.73 3.26,2.55 l -12.08,3.06 -5.72,1.44 c -24.67,7.55 -92.94,48.19 -54.51,132.32 22.7,49.86 100.32,49.78 153.5,36.67 53.18,-13.09 101.68,-40.01 150.5,-64.93 48.72,-24.83 99.61,-48.41 154.06,-53.89"
         style="fill:#1a7569;fill-opacity:1;fill-rule:nonzero;stroke:none"
         id="path122" /><path
         d="m 3030.17,3263.85 c -25.79,-13.49 -53.98,-21.35 -82.62,-26.13 -25.8,-4.19 -51.92,-6.18 -77.86,-8.25 -25.65,-1.98 -51.76,-3.42 -76.86,-9.21 -1.81,-0.47 -3.63,-0.94 -5.46,-1.41 1.03,0.94 2.14,1.73 3.26,2.55 l -12.08,3.06 c 3.5,1.2 7.08,2.23 10.65,3.11 25.08,6.11 51.36,7.55 76.99,9.61 54.36,4.36 110.8,7.77 160,33.57 4.53,2.37 8.52,-4.53 3.98,-6.9"
         style="fill:#46bda9;fill-opacity:1;fill-rule:nonzero;stroke:none"
         id="path124" /><path
         d="m 2793.77,3229.79 c -53.44,-16.05 -82.19,-68.41 -94.02,-119.52 -6.88,-29.65 -9.96,-60.28 -9.54,-90.72 0.41,-29.34 3.89,-58.54 6.94,-87.71 5.98,-57.06 10.84,-117.42 -15.19,-170.6 -12.58,-25.73 -30.18,-48.58 -43.27,-74.02 -13.55,-26.39 -20.86,-55.22 -25.6,-84.36 -11.33,-69.41 -13.15,-140.43 -6.17,-210.39 0.51,-5.04 8.45,-5.08 7.94,0 -6.21,62.22 -5.36,125.08 2.78,187.05 3.85,29.42 9.06,59.04 20.12,86.69 10.62,26.51 27.69,49.57 41.95,74.11 14.04,24.18 23.51,49.89 27.44,77.62 3.89,27.68 3.08,55.7 0.84,83.48 -2.34,28.73 -6.17,57.3 -8.34,86.03 -2.23,29.98 -2.13,60.06 2.07,89.87 8.16,58 32.02,126.15 94.14,144.83 4.88,1.46 2.81,9.12 -2.09,7.64"
         style="fill:#1a7569;fill-opacity:1;fill-rule:nonzero;stroke:none"
         id="path126" /><path
         d="m 2693.31,3658.23 c -43.62,47.54 -101.75,78.89 -159.51,107.62 -53.08,26.43 -106.87,51.39 -161.3,74.9 31.92,-85.73 37.63,-181.01 16.17,-269.94 -11.01,-45.66 -28.96,-89.64 -36.75,-135.96 -7.78,-46.32 -3.99,-97.44 24.57,-134.74 32.22,-42.06 94.28,-56.62 142.85,-35.45 59.3,25.82 75.13,101.85 75.13,101.85 26.95,-17.34 65.74,-41.85 106.95,-17.34 36.22,21.54 47.87,32.77 60.46,66.84 5.55,15 6.99,31.23 7.03,47.22 0.21,71.35 -27.34,142.44 -75.6,195"
         style="fill:#46bda9;fill-opacity:1;fill-rule:nonzero;stroke:none"
         id="path128" /><path
         d="m 2591.55,3379.01 c 0.6,-13.89 -0.66,-27.85 0.59,-41.73 1.32,-14.67 6.48,-29.07 11.09,-42.97 10.15,-30.61 22.63,-60.43 31.81,-91.37 9.23,-31.02 14.4,-62.87 10.6,-95.23 -3.99,-34.16 -15.8,-66.82 -23.35,-100.25 -14.47,-63.85 -19.53,-129.52 -19.48,-194.87 0.04,-67.04 5.39,-133.95 12.06,-200.59 6.63,-66.15 14.7,-132.19 20.44,-198.42 0.73,-8.24 1.4,-16.46 2.03,-24.68 0.39,-5.07 8.32,-5.1 7.93,0 -5.1,66.31 -13,132.34 -19.93,198.46 -6.98,66.73 -13.05,133.66 -14.34,200.76 -1.27,66.04 2.07,132.47 14.76,197.4 6.45,33.01 17.09,64.92 23.85,97.84 6.6,32.12 6.7,63.88 -0.23,95.95 -6.73,31.12 -18.4,60.88 -29.25,90.73 -5.46,15.01 -10.77,30.11 -15.19,45.48 -2.06,7.15 -4.2,14.31 -4.87,21.76 -0.64,7.03 -0.61,14.12 -0.54,21.16 0.08,6.87 0.26,13.72 -0.04,20.57 -0.22,5.1 -8.16,5.12 -7.94,0"
         style="fill:#1a7569;fill-opacity:1;fill-rule:nonzero;stroke:none"
         id="path130" /><path
         d="m 2447.27,3730.1 c 35.15,-36.67 58.03,-82.59 79.31,-128.2 11.75,-25.19 23.69,-50.39 33.36,-76.48 9.53,-25.76 17.44,-52.14 23.06,-79.01 6.42,-30.74 9.63,-62.08 8.64,-93.48 -0.16,-5.11 7.77,-5.11 7.94,0 1.77,56.52 -10.02,112.72 -28.82,165.83 -9.41,26.6 -21.13,52.25 -32.99,77.83 -10.84,23.4 -21.8,46.77 -34.45,69.26 -14.12,25.1 -30.47,49.02 -50.44,69.85 -3.54,3.68 -9.16,-1.92 -5.61,-5.6"
         style="fill:#1a7569;fill-opacity:1;fill-rule:nonzero;stroke:none"
         id="path132" /><path
         d="m 2779.94,1499.96 c -114.08,-22.73 -224.08,-29.29 -325.33,0 -3.75,22.37 -7.34,44.7 -10.67,66.99 -55.33,363.22 -61.38,712.4 10.67,1043.82 108.4,-19.34 216.87,-19.45 325.33,0 0.37,-1.78 0.74,-3.58 1.06,-5.37 76.74,-371.97 62.41,-739.56 -1.06,-1105.44"
         style="fill:#fb6260;fill-opacity:1;fill-rule:nonzero;stroke:none"
         id="path134" /><path
         d="m 2779.94,1499.96 c -114.08,-22.73 -224.08,-29.29 -325.33,0 -3.75,22.37 -7.34,44.7 -10.67,66.99 246.63,102.21 318.67,521.59 337.06,1038.45 76.74,-371.97 62.41,-739.56 -1.06,-1105.44"
         style="fill:#bc4a48;fill-opacity:1;fill-rule:nonzero;stroke:none"
         id="path136" /><path
         d="M 6422.19,2578.13 6612.7,1526.34 c 6.17,-34.03 -43.46,-45.72 -53.11,-12.5 l -272.34,1052.75 134.94,11.54"
         style="fill:#a27e65;fill-opacity:1;fill-rule:nonzero;stroke:none"
         id="path138" /><path
         d="M 3531.73,2578.13 3341.24,1526.34 c -6.17,-34.03 43.45,-45.72 53.12,-12.5 l 272.32,1052.75 -134.95,11.54"
         style="fill:#a27e65;fill-opacity:1;fill-rule:nonzero;stroke:none"
         id="path140" /><path
         d="M 6613.22,1994.21 H 3312.63 v 1247.33 c 0,156.92 127.21,284.13 284.15,284.13 h 2732.3 c 156.93,0 284.14,-127.21 284.14,-284.13 V 1994.21"
         style="fill:#e89156;fill-opacity:1;fill-rule:nonzero;stroke:none"
         id="path142" /><path
         d="m 6410.56,3038.86 v 0 c -139.93,0 -253.39,-113.45 -253.39,-253.37 v -162.46 c -415.31,62.92 -815.96,72.3 -1194.24,0 -407.01,83.11 -805.03,70.16 -1197.68,0 v 162.46 c 0,139.92 -113.43,253.37 -253.36,253.37 -139.94,0 -253.39,-113.45 -253.39,-253.37 v -791.28 h 506.75 v 304.28 h 2391.92 v -304.28 h 408.6 l 98.17,791.28 c 0,139.92 -113.45,253.37 -253.38,253.37"
         style="fill:#ae6d41;fill-opacity:1;fill-rule:nonzero;stroke:none"
         id="path144" /><path
         d="m 3650.31,1994.21 h -372.72 c -74.03,0 -134.03,60 -134.03,134.03 v 678.36 c 0,128.27 103.98,232.26 232.25,232.26 h 42.26 c 128.26,0 232.24,-103.99 232.24,-232.26 v -812.39"
         style="fill:#e89156;fill-opacity:1;fill-rule:nonzero;stroke:none"
         id="path146" /><path
         d="m 6667.13,1994.21 h -372.74 v 812.39 c 0,128.27 103.97,232.26 232.25,232.26 h 42.26 c 128.27,0 232.25,-103.99 232.25,-232.26 v -678.36 c 0,-74.03 -60,-134.03 -134.02,-134.03"
         style="fill:#e89156;fill-opacity:1;fill-rule:nonzero;stroke:none"
         id="path148" /><path
         d="m 4165.64,2352.51 -44.55,-146.23 -150.41,-493.52 c -41.08,-39.44 -31.45,-107.54 18.97,-134.05 l 215.13,-113.13 -120.19,221.69 c 0,0 155.3,253.32 237.58,477.78 6.99,19.04 13.46,37.91 19.22,56.43 28.3,90.31 40.52,171.56 20.6,223.43 -45.76,119.32 -327.02,250.34 -350.43,261.01 -1.04,0.52 -1.57,0.69 -1.57,0.69 l -297.85,7.68 c -90.32,-318.45 263.61,-361.78 453.5,-361.78"
         style="fill:#fdc5ae;fill-opacity:1;fill-rule:nonzero;stroke:none"
         id="path150" /><path
         d="m 4309.6,2379.4 c 0,0 -0.35,-66.2 7.33,-159.66 1.41,-17.3 3.14,-35.65 5.24,-54.69 13.46,-124.9 58.69,-314.62 116.35,-428.69 l 106.38,-117.62 c 0,0 92.11,61.62 110.28,60.05 17.99,-1.75 -129.32,59.67 -129.32,59.67 -7.86,92.07 2.8,325.97 2.27,497 -0.17,81.05 -6.8,155.65 -26.9,209.98 -54.68,148.49 -379.96,257.84 -379.96,257.84 l -109.71,2.64 -209.64,5.06 C 3766.64,2393.74 4309.6,2379.4 4309.6,2379.4"
         style="fill:#fdc5ae;fill-opacity:1;fill-rule:nonzero;stroke:none"
         id="path152" /><path
         d="m 4047.01,2266.2 0.37,-159.49 c 0,-40.18 28.3,-75.46 67.78,-82.8 179.76,-33.2 276.89,92.57 415.77,57.64 24.98,-6.3 49.27,12.41 51.53,37.91 16.78,183.43 -27.6,314.28 -52.75,360.75 -80.9,148.47 -408.44,223.07 -408.44,223.07 l -111.28,3.33 -254.17,6.64 -10.14,0.18 -33.54,0.86 c -90.32,-318.45 144.99,-448.09 334.87,-448.09"
         style="fill:#925fc7;fill-opacity:1;fill-rule:nonzero;stroke:none"
         id="path154" /><path
         d="m 4047.01,2266.2 c -258.38,63.77 -335.41,234.27 -259.93,424.86 l -41.4,22.37 -33.54,0.86 c -90.32,-318.45 144.99,-448.09 334.87,-448.09"
         style="fill:#663f90;fill-opacity:1;fill-rule:nonzero;stroke:none"
         id="path156" /><path
         d="m 3497.24,3366.06 c 21.43,29.13 67.47,42.69 70.55,78.71 1.26,14.72 -5.76,28.81 -7.77,43.46 -4.79,34.95 18.87,66.98 42.72,92.97 23.86,25.99 50.73,53.34 54.6,88.41 2,17.94 -2.4,35.87 -4.72,53.76 -5.5,42.25 3.97,91.22 39.81,114.24 15.3,9.83 33.76,13.83 49.09,23.64 21.94,14.04 35,38.34 54.39,55.73 36,32.32 94.56,35.92 134.25,8.26 14.2,-9.86 26.23,-23.28 42.22,-29.86 12.6,-5.19 26.57,-5.68 39.94,-8.34 43.66,-8.68 84.33,-42.03 94.08,-85.46 14.67,-65.45 -66.28,-145.41 -97.9,-176.72 20.68,-68.97 129.96,-131.02 55.97,-185.92 -76.11,-56.47 -91.49,-246.56 -154.45,-377.54 -73.07,22.58 -142.19,57.85 -203.34,103.75 -19.38,14.53 -38.3,30.33 -60.7,39.52 -19.5,8 -40.73,10.61 -61.14,15.87 -32.41,8.35 -64.2,24.49 -83.71,51.7 -19.51,27.19 -23.76,66.88 -3.89,93.82"
         style="fill:#e25d6f;fill-opacity:1;fill-rule:nonzero;stroke:none"
         id="path158" /><path
         d="m 4036.19,3359.08 35.47,-291.02 c 0,0 118.1,-70.77 178.54,-80.53 35.11,-5.61 96.77,34.57 160.01,94.69 68.31,64.79 138.54,152.85 179.95,231.62 122.46,26.39 161.75,112.69 160.54,175.21 -1.4,80.55 -111.29,-65.85 -135.39,-56.4 -18.51,7.31 -1.05,92.94 -27.26,94.31 -40.34,2.1 -57.83,-151.09 -57.83,-151.09 -72.84,-59.23 -136.6,-101.33 -196.34,-144.83 -28.66,-20.8 -56.26,-41.93 -83.68,-65.5 l -214.01,193.54"
         style="fill:#fdc5ae;fill-opacity:1;fill-rule:nonzero;stroke:none"
         id="path160" /><path
         d="m 4036.19,3359.08 35.47,-291.02 c 0,0 118.1,-70.77 178.54,-80.53 35.11,-5.61 96.77,34.57 160.01,94.69 l -76.33,148.82 c -28.66,-20.8 -56.26,-41.93 -83.68,-65.5 l -214.01,193.54"
         style="fill:#8854c0;fill-opacity:1;fill-rule:nonzero;stroke:none"
         id="path162" /><path
         d="m 3825.53,3432.67 138.53,-8.73 -6.64,23.05 -7.33,25.52 -9.96,34.41 -91.71,39.3 -7.87,-39.3 -4.37,-21.5 -10.65,-52.75"
         style="fill:#fdc5ae;fill-opacity:1;fill-rule:nonzero;stroke:none"
         id="path164" /><path
         d="m 3712.49,3091.28 c 42.44,-94.52 -0.35,-380.3 -0.35,-380.3 24.97,-6.63 49.96,-13.65 74.95,-19.92 114.24,-28.65 227.44,-45.95 334.18,12.22 0,0 -127.52,116.91 -58.15,269.93 86.29,189.55 38.58,378.38 -99.08,450.69 l -138.52,8.75 c 0,0 -121.24,-41.41 -127.87,-56.78 -4.55,-10.66 4.69,-146.93 10.48,-226.93 2.44,-33.89 4.36,-57.66 4.36,-57.66"
         style="fill:#8854c0;fill-opacity:1;fill-rule:nonzero;stroke:none"
         id="path166" /><path
         d="m 3970.68,1712.76 -25.66,-24.63 c -31.78,-30.52 -30.45,-82.01 3.22,-110.44 76.68,-64.78 204.9,-158.19 260.1,-112.11 22.93,19.14 -61.09,106.11 -61.09,106.11 -88.37,-17.32 -151.65,20.06 -176.57,141.07"
         style="fill:#e25d6f;fill-opacity:1;fill-rule:nonzero;stroke:none"
         id="path168" /><path
         d="m 4435.66,1738.58 -8.08,-34.62 c -10.03,-42.93 19.14,-85.37 62.87,-90.87 99.6,-12.53 244,-55.43 265.18,13.31 8.8,28.53 -127.6,67.83 -127.6,67.83 -64.65,-62.7 -105.53,-43.56 -192.37,44.35"
         style="fill:#e25d6f;fill-opacity:1;fill-rule:nonzero;stroke:none"
         id="path170" /><path
         d="m 3712.14,2710.98 c 24.97,-6.63 49.96,-13.65 74.95,-19.92 -15.12,225.87 79.65,370.65 13.26,510.28 l -92.22,-52.4 c 2.44,-33.89 4.36,-57.66 4.36,-57.66 42.44,-94.52 -0.35,-380.3 -0.35,-380.3"
         style="fill:#663f90;fill-opacity:1;fill-rule:nonzero;stroke:none"
         id="path172" /><path
         d="m 3348.78,2902.44 c 0.87,-35.46 47.86,-85.07 103.59,-131.38 71.44,-58.86 157.4,-111.8 179.93,-120.7 27.82,-10.99 6.72,-50.99 12.09,-90.13 13.11,-95.81 77.36,-88.61 68.79,-60.61 -30.31,99.1 69.6,135.14 -27.84,194.9 -45.95,54.36 -88.86,108.34 -135.5,156.39 -20.25,21.13 -40.7,42.79 -60.78,66.02 81.94,52.77 120.18,79.66 223.43,174.35 189.37,159.67 86.12,336.12 -14.84,284.59 -84.05,-42.97 -352.37,-348.69 -348.87,-473.43"
         style="fill:#fdc5ae;fill-opacity:1;fill-rule:nonzero;stroke:none"
         id="path174" /><path
         d="m 3342.73,2895.09 c 0.9,-36.96 49.11,-88.64 106.25,-136.89 l 100,83.2 c -20.8,22.01 -41.75,44.59 -62.36,68.8 84.04,54.97 123.28,82.99 229.2,181.65 194.24,166.35 88.34,350.17 -15.24,296.49 -86.2,-44.78 -361.44,-363.29 -357.85,-493.25"
         style="fill:#8854c0;fill-opacity:1;fill-rule:nonzero;stroke:none"
         id="path176" /><path
         d="m 3840.55,3506.92 c 23.24,-15.04 58.87,-34.61 86.48,-35.12 8.38,-0.17 16.08,0 23.06,0.71 l -9.96,34.41 -91.71,39.3 -7.87,-39.3"
         style="fill:#be9483;fill-opacity:1;fill-rule:nonzero;stroke:none"
         id="path178" /><path
         d="m 4029.54,3775.79 c 0,0 58.96,-262.69 -79.54,-265.18 -124.76,-2.26 -140.82,127.47 -140.82,127.47 0,0 -46.04,60.3 -12.44,81.9 28.43,18.27 60.99,-27.76 60.99,-27.76 0,0 134.24,-24.1 171.81,83.57"
         style="fill:#fdc5ae;fill-opacity:1;fill-rule:nonzero;stroke:none"
         id="path180" /><path
         d="m 5691.25,2417.31 45.63,-149.77 154.08,-505.53 c 42.07,-40.42 32.21,-110.17 -19.44,-137.33 l -220.37,-115.89 123.13,227.09 c 0,0 -159.1,259.48 -243.38,489.42 -7.15,19.5 -13.77,38.83 -19.67,57.8 -28.99,92.52 -41.54,175.74 -21.12,228.89 46.88,122.22 334.99,256.44 358.97,267.36 1.08,0.53 1.62,0.7 1.62,0.7 l 305.1,7.88 c 92.52,-326.23 -270.03,-370.62 -464.55,-370.62"
         style="fill:#fdc5ae;fill-opacity:1;fill-rule:nonzero;stroke:none"
         id="path182" /><path
         d="m 5543.79,2444.87 c 0,0 0.35,-67.82 -7.52,-163.55 -1.43,-17.71 -3.22,-36.52 -5.37,-56.02 -13.77,-127.94 -60.12,-322.28 -119.16,-439.15 l -109,-120.47 c 0,0 -94.34,63.14 -112.96,61.52 -18.43,-1.79 132.47,61.12 132.47,61.12 8.06,94.31 -2.86,333.9 -2.33,509.11 0.19,83.02 6.98,159.44 27.56,215.08 56.02,152.11 389.22,264.15 389.22,264.15 l 112.38,2.69 214.73,5.17 c 36.16,-324.97 -520.02,-339.65 -520.02,-339.65"
         style="fill:#fdc5ae;fill-opacity:1;fill-rule:nonzero;stroke:none"
         id="path184" /><path
         d="m 5812.81,2328.84 -0.36,-163.4 c 0,-41.15 -28.97,-77.3 -69.42,-84.81 -184.14,-34.01 -283.64,94.84 -425.91,59.05 -25.6,-6.45 -50.46,12.7 -52.78,38.83 -17.18,187.91 28.26,321.94 54.04,369.54 62.26,114.53 267.7,186.11 365.58,214.38 32.22,9.49 52.81,14.14 52.81,14.14 l 35.07,1.08 4.84,0.17 h 0.33 l 73.75,2.14 260.37,6.82 10.37,0.16 34.36,0.9 c 3.05,-10.74 5.73,-21.11 7.88,-31.32 68.9,-303.5 -162.67,-427.68 -350.93,-427.68"
         style="fill:#8ffae6;fill-opacity:1;fill-rule:nonzero;stroke:none"
         id="path186" /><path
         d="m 6163.74,2756.52 c -71.57,-27.19 -171.53,-52.66 -268.72,-51.94 -130.8,1.06 -213.73,49.98 -213.73,49.98 l 2.67,7.87 c 32.22,9.49 52.81,14.14 52.81,14.14 l 35.07,1.08 0.35,-0.36 c 0.18,-0.19 1.62,0 4.49,0.53 h 0.33 l 73.75,2.14 260.37,6.82 10.37,0.16 34.36,0.9 c 3.05,-10.74 5.73,-21.11 7.88,-31.32"
         style="fill:#6bbbad;fill-opacity:1;fill-rule:nonzero;stroke:none"
         id="path188" /><path
         d="m 6314.28,3459.62 c -19.16,26 -60.28,38.12 -63.03,70.31 -1.13,13.15 5.14,25.74 6.93,38.83 4.28,31.21 -16.85,59.82 -38.16,83.05 -21.31,23.21 -45.31,47.65 -48.79,78.97 -1.78,16.05 2.15,32.04 4.24,48.04 4.91,37.73 -3.57,81.48 -35.58,102.06 -13.66,8.78 -26.88,13.49 -40.55,22.24 -19.59,12.55 -34.56,33.13 -51.88,48.67 -32.17,28.87 -84.48,32.09 -119.94,7.38 -12.7,-8.83 -23.44,-20.8 -37.73,-26.68 -11.25,-4.65 -23.73,-5.08 -35.68,-7.45 -38.99,-7.75 -75.33,-37.55 -84.03,-76.36 -13.13,-58.47 59.19,-129.89 87.44,-157.87 -18.46,-61.62 -116.09,-117.06 -50,-166.09 67.99,-50.47 81.74,-220.27 137.99,-337.29 65.27,20.18 127.03,51.67 181.66,92.68 17.3,12.99 34.21,27.09 54.23,35.31 17.41,7.15 36.37,9.48 54.62,14.17 28.95,7.46 57.34,21.89 74.78,46.19 17.42,24.31 21.21,59.77 3.48,83.84"
         style="fill:#0c133c;fill-opacity:1;fill-rule:nonzero;stroke:none"
         id="path190" /><path
         d="m 5823.85,3448.44 -36.33,-298.14 c 0,0 -120.98,-72.48 -182.88,-82.51 -35.98,-5.72 -99.15,35.44 -163.93,97 -69.96,66.4 -141.9,156.6 -184.32,237.3 -125.44,27.02 -165.71,115.41 -164.46,179.48 1.43,82.5 114.01,-67.47 138.7,-57.81 18.97,7.53 1.07,95.22 27.91,96.65 41.34,2.14 59.23,-154.8 59.23,-154.8 74.63,-60.67 139.94,-103.78 201.15,-148.34 29.34,-21.29 57.62,-42.96 85.72,-67.1 l 219.21,198.27"
         style="fill:#fdc5ae;fill-opacity:1;fill-rule:nonzero;stroke:none"
         id="path192" /><path
         d="m 5823.85,3448.44 -36.33,-298.14 c 0,0 -120.98,-72.48 -182.88,-82.51 -35.98,-5.72 -99.15,35.44 -163.93,97 l 78.21,152.48 c 29.34,-21.29 57.62,-42.96 85.72,-67.1 l 219.21,198.27"
         style="fill:#6bbbad;fill-opacity:1;fill-rule:nonzero;stroke:none"
         id="path194" /><path
         d="m 6039.65,3523.8 -141.91,-8.95 6.81,23.63 7.5,26.12 10.22,35.25 93.92,40.26 8.07,-40.26 4.48,-22.01 10.91,-54.04"
         style="fill:#fdc5ae;fill-opacity:1;fill-rule:nonzero;stroke:none"
         id="path196" /><path
         d="m 6155.44,3174.11 c -43.49,-96.82 0.36,-389.59 0.36,-389.59 -25.59,-6.81 -51.17,-13.94 -76.78,-20.39 -117.03,-29.35 -232.98,-47.07 -342.32,12.53 0,0 130.62,119.74 59.58,276.49 -88.41,194.16 -39.54,387.58 101.47,461.68 l 141.9,8.93 c 0,0 124.22,-42.4 131,-58.15 4.66,-10.91 -4.81,-150.5 -10.73,-232.46 -2.51,-34.72 -4.48,-59.04 -4.48,-59.04"
         style="fill:#8ffae6;fill-opacity:1;fill-rule:nonzero;stroke:none"
         id="path198" /><path
         d="m 5890.96,1762.01 26.27,-25.25 c 32.57,-31.26 31.21,-84.02 -3.28,-113.14 -78.56,-66.35 -209.9,-162.03 -266.45,-114.83 -23.49,19.6 62.6,108.68 62.6,108.68 90.52,-17.73 155.34,20.55 180.86,144.54"
         style="fill:#0c133c;fill-opacity:1;fill-rule:nonzero;stroke:none"
         id="path200" /><path
         d="m 5414.65,1788.45 8.29,-35.48 c 10.26,-43.98 -19.62,-87.44 -64.42,-93.08 -102.02,-12.83 -249.94,-56.77 -271.64,13.63 -9.01,29.22 130.72,69.48 130.72,69.48 66.23,-64.21 108.1,-44.6 197.05,45.45"
         style="fill:#0c133c;fill-opacity:1;fill-rule:nonzero;stroke:none"
         id="path202" /><path
         d="m 6155.8,2784.52 c -25.59,-6.81 -51.17,-13.94 -76.78,-20.39 15.49,231.39 -81.58,379.67 -13.59,522.73 l 94.49,-53.71 c -2.51,-34.72 -4.48,-59.04 -4.48,-59.04 -43.49,-96.82 0.36,-389.59 0.36,-389.59"
         style="fill:#6bbbad;fill-opacity:1;fill-rule:nonzero;stroke:none"
         id="path204" /><path
         d="m 6528.01,2980.65 c -0.89,-36.31 -49.03,-87.15 -106.12,-134.57 -73.18,-60.3 -161.23,-114.53 -184.31,-123.66 -28.5,-11.24 -6.9,-52.21 -12.38,-92.3 -13.42,-98.15 -79.23,-90.79 -70.46,-62.08 31.03,101.48 -71.3,138.42 28.52,199.65 47.05,55.64 91.01,110.96 138.79,160.18 20.76,21.64 41.7,43.84 62.28,67.65 -83.94,54.02 -123.12,81.59 -228.89,178.59 -193.98,163.56 -88.22,344.3 15.21,291.5 86.08,-44.02 360.95,-357.18 357.36,-484.96"
         style="fill:#fdc5ae;fill-opacity:1;fill-rule:nonzero;stroke:none"
         id="path206" /><path
         d="m 6528.01,2980.65 c -0.89,-36.31 -49.03,-87.15 -106.12,-134.57 l -99.84,81.79 c 20.76,21.64 41.7,43.84 62.28,67.65 -83.94,54.02 -123.12,81.59 -228.89,178.59 -193.98,163.56 -88.22,344.3 15.21,291.5 86.08,-44.02 360.95,-357.18 357.36,-484.96"
         style="fill:#6bbbad;fill-opacity:1;fill-rule:nonzero;stroke:none"
         id="path208" /><path
         d="m 6024.26,3599.85 c -23.8,-15.4 -60.31,-35.44 -88.6,-35.97 -8.57,-0.17 -16.44,0 -23.61,0.72 l 10.22,35.25 93.92,40.26 8.07,-40.26"
         style="fill:#be9483;fill-opacity:1;fill-rule:nonzero;stroke:none"
         id="path210" /><path
         d="m 6044.18,3702.57 c 0,0 -0.3,-2.09 -0.9,-5.82 -1.49,-6.7 -4.32,-18.77 -10.28,-32.64 -4.17,-9.69 -9.86,-20.13 -17.44,-30.12 -0.89,-1.33 -1.79,-2.53 -2.83,-3.71 -18.78,-22.95 -48.14,-42.32 -94.34,-41.6 -54.41,1.06 -74.67,46.95 -80.33,98.09 -7.16,65.11 9.38,138.9 9.38,138.9 29.06,-83.46 123.24,-78.25 147.55,-75.43 h 0.15 c 2.38,0.17 4.18,0.46 5.06,0.61 l 0.61,0.14 c 0,0 2.68,3.88 7.45,8.8 10.13,11.03 29.51,27.27 47.09,15.94 29.96,-19.22 -11.17,-73.16 -11.17,-73.16"
         style="fill:#fdc5ae;fill-opacity:1;fill-rule:nonzero;stroke:none"
         id="path212" /><path
         d="m 6016.7,3635.99 c 0,0 -25.14,-47.33 -98.31,-47.31 -54.42,0.04 -74.67,46.95 -80.33,98.09 11.63,9.82 24.63,10.44 31.53,9.03 22.79,-4.71 85.23,-3.26 105.2,21.08 -16.29,-41.21 -6.02,-91.95 41.91,-80.89"
         style="fill:#8ffae6;fill-opacity:1;fill-rule:nonzero;stroke:none"
         id="path214" /><path
         d="m 5797.26,3885.93 c 0,0 19.34,101.66 73.86,142.75 29.72,22.38 196.85,27.7 226.49,-12.58 32.36,-43.96 61.72,-146.07 61.72,-146.07 -89.54,74.55 -245.64,91.56 -362.07,15.9"
         style="fill:#8ffae6;fill-opacity:1;fill-rule:nonzero;stroke:none"
         id="path216" /><path
         d="m 6010.34,3758.31 -53.5,-71.54 -5.96,4.47 44.11,59 h 0.15 c 2.38,0.17 4.18,0.46 5.06,0.61 l 0.61,0.14 c 0,0 2.68,3.88 7.45,8.8 l 2.08,-1.48"
         style="fill:#8ffae6;fill-opacity:1;fill-rule:nonzero;stroke:none"
         id="path218" /><path
         d="m 6043.28,3696.75 c -1.49,-6.7 -4.32,-18.77 -10.28,-32.64 l -17.44,-30.12 -2.24,-4 -0.59,0.29 -5.95,3.43 36.5,63.04"
         style="fill:#8ffae6;fill-opacity:1;fill-rule:nonzero;stroke:none"
         id="path220" /><path
         d="m 12395.7,3071.6 c 166.6,-307.17 103.1,-673.88 168.8,-1005.48 17.8,-90.11 45.5,-177.24 87.3,-259.25 9.1,-17.92 35.1,-0.32 26,17.5 -157.7,309.7 -94,673.2 -162.9,1003.82 -18.9,91.07 -48.7,179.03 -93.2,260.9 -9.6,17.72 -35.5,0.15 -26,-17.49"
         style="fill:#094940;fill-opacity:1;fill-rule:nonzero;stroke:none"
         id="path222" /><path
         d="m 12533.5,3344.03 c 7.3,-37.39 0.1,-76.15 -10.9,-112.64 -11,-36.49 -25.8,-71.81 -34.2,-109.02 -4.2,-18.55 -14.7,-49.82 -22.3,-80.84 -7.3,-29.82 -3,-47.71 -5.4,-77.13 l 0.8,-2.07 c -4.2,1.18 -9.1,1.36 -14.6,0.9 -42.9,-3.88 -121.3,-52.64 -152.9,-64.7 -35.6,-13.5 -68.5,-33.17 -103.1,-49.13 -34.6,-15.99 -71.9,-28.59 -110,-26.53 -38,2.06 -76.9,21.21 -94.2,55.15 -17.2,33.96 -5.9,82.24 28.7,98.34 8.5,3.95 18.7,6.54 23.5,14.54 6.4,10.48 -0.4,24.81 -10.8,31.23 -10.4,6.45 -23.2,7.32 -35.3,8.96 -44.6,5.95 -87.3,24.53 -122.1,52.98 -16,13.12 -30.9,29.3 -36.1,49.38 -5.1,20.11 2.4,44.57 21.3,53.17 28,12.75 66.2,-12.61 89.4,7.41 16,13.72 11.9,40.89 -2,56.7 -13.9,15.78 -34.4,23.75 -53.1,33.41 -101.2,52.32 -161.9,173.36 -143.2,285.77 108.6,34.2 237,-8.88 303,-101.8 12.2,-17.14 22.9,-36.28 40.6,-47.85 17.6,-11.51 45,-11.8 56.3,5.96 16.6,25.88 -13.8,60.06 -5.1,89.54 5.8,19.89 29,30.81 49.6,28.56 20.7,-2.28 38.7,-14.78 54,-28.84 33,-30.41 57.4,-70.16 69.6,-113.42 3.2,-11.78 5.9,-24.32 13.8,-33.69 7.8,-9.38 22.9,-14.11 32.4,-6.34 7.3,5.97 8.4,16.36 11.1,25.36 11.1,36.48 57.3,54.46 93.3,42.11 36.1,-12.3 60.5,-48.11 67.9,-85.47"
         style="fill:#1a7569;fill-opacity:1;fill-rule:nonzero;stroke:none"
         id="path224" /><path
         d="m 12694.5,3434.46 c 54.8,-210.7 -38.6,-423.57 -72,-630.01 -33.9,-209.48 -31.3,-422.83 -10.6,-633.49 11.7,-119.96 29.3,-239.3 49.2,-358.18 3.3,-19.85 33.5,-11.42 30.2,8.33 -36,215.03 -64,432.24 -63.5,650.63 0.3,108.52 7.6,217.21 24.9,324.38 16.9,104.2 46,205.68 67,309.01 22.7,111.6 34.1,226.12 5.1,337.67 -5.1,19.52 -35.3,11.23 -30.3,-8.34"
         style="fill:#094940;fill-opacity:1;fill-rule:nonzero;stroke:none"
         id="path226" /><path
         d="m 13047,3460.15 c -21.7,-31.39 -54.4,-53.27 -88.2,-70.92 -33.8,-17.6 -69.5,-31.64 -102,-51.62 -16.2,-9.91 -45.9,-24.26 -73.4,-40.47 -26.5,-15.59 -50.8,-32.98 -59,-49.96 l -1,-2.03 c -2,3.81 -5.3,7.46 -9.5,11.07 -32.7,28.01 -122.4,50.07 -153,64.24 -34.6,16.08 -71.7,25.94 -107.2,39.49 -35.6,13.63 -70.7,31.58 -95.8,60.26 -25.1,28.69 -38.6,69.88 -26.3,105.9 12.2,36.11 54.7,61.67 90.4,48.17 8.8,-3.33 17.7,-8.8 26.8,-6.69 12,2.75 17.5,17.64 14.9,29.54 -2.7,11.94 -11,21.74 -18.3,31.53 -26.8,36.06 -43.4,79.64 -47.3,124.4 -1.8,20.65 -0.6,42.6 10.2,60.29 10.8,17.71 33.5,29.42 52.9,21.89 28.7,-11.12 37.1,-56.12 67.7,-58.8 21,-1.86 37.6,20.02 39.2,40.99 1.6,21.03 -7,41.23 -13.1,61.36 -33.3,108.97 11,236.94 104.5,302.08 100.3,-53.9 159.2,-175.91 138.7,-287.99 -3.8,-20.7 -10,-41.76 -5.9,-62.45 4,-20.65 23,-40.48 43.6,-36.21 30.1,6.21 33.3,51.87 60.5,66.24 18.3,9.71 42.3,0.72 55.1,-15.61 12.8,-16.33 16.4,-38 17,-58.75 1.3,-44.9 -10.1,-90.1 -32.6,-129.01 -6.1,-10.58 -13.2,-21.26 -14.4,-33.45 -1.3,-12.11 5.9,-26.27 18.1,-27.62 9.3,-1.03 17.5,5.42 25.9,9.77 33.8,17.52 78.9,-2.97 95.3,-37.41 16.3,-34.38 7.7,-76.85 -13.8,-108.23"
         style="fill:#46bda9;fill-opacity:1;fill-rule:nonzero;stroke:none"
         id="path228" /><path
         d="m 12947.9,2983.12 c -186.5,-262.04 -289.8,-580.37 -295.6,-901.79 -1.7,-90.17 4.8,-180.13 18.5,-269.24 3,-19.86 33.2,-11.43 30.2,8.34 -47.5,310.81 2.3,635.08 138.6,918.25 38.5,79.94 83.9,156.35 135.4,228.61 11.7,16.47 -15.5,32.14 -27.1,15.83"
         style="fill:#094940;fill-opacity:1;fill-rule:nonzero;stroke:none"
         id="path230" /><path
         d="m 13208.9,2717.67 c -35.8,-12.96 -75.2,-11.68 -113,-6.37 -37.7,5.36 -74.9,14.67 -112.9,17.34 -19,1.37 -51.5,6.98 -83.3,9.82 -30.6,2.69 -60.5,2.72 -77.1,-6.32 l -1.9,-1.08 c 0.5,4.26 0,9.16 -1.3,14.53 -10.3,41.85 -70.4,111.93 -87.1,141.31 -18.7,33.18 -43.2,62.76 -64.2,94.47 -21,31.82 -39.1,66.82 -42.8,104.75 -3.8,37.93 9.3,79.26 40.2,101.43 31,22.23 80.4,18.29 101.6,-13.44 5.2,-7.84 9.2,-17.45 17.9,-21.06 11.3,-4.72 24.4,4.19 29.2,15.4 4.8,11.27 3.7,24.06 3.5,36.26 -0.8,44.97 11.1,90.03 33.9,128.72 10.6,17.84 24.3,35 43.4,43.12 19.1,8.11 44.4,4.38 55.8,-13.01 16.8,-25.72 -2.5,-67.24 20.8,-87.22 16,-13.71 42.2,-5.57 55.7,10.54 13.6,16.18 18.3,37.62 25,57.56 36.5,107.94 146.9,186.25 260.8,184.84 50.3,-102.22 27.1,-235.66 -54.7,-314.92 -15.1,-14.62 -32.4,-28.16 -41.2,-47.36 -8.7,-19.12 -4.8,-46.29 14.4,-54.81 28.1,-12.47 57.3,22.79 87.8,18.67 20.5,-2.76 34.8,-24.04 35.7,-44.76 0.9,-20.72 -8.7,-40.48 -20.3,-57.67 -25.1,-37.3 -60.7,-67.4 -101.6,-85.98 -11.1,-5.02 -23.1,-9.59 -31.2,-18.77 -8.1,-9.14 -10.5,-24.82 -1.4,-33.04 7,-6.24 17.5,-5.77 26.8,-7.11 37.7,-5.45 62.5,-48.34 55.7,-85.86 -6.7,-37.48 -38.4,-67.02 -74.2,-79.98"
         style="fill:#129180;fill-opacity:1;fill-rule:nonzero;stroke:none"
         id="path232" /><path
         d="m 12822.3,1555.67 h -330.9 l -47.7,341.42 h 421.8 l -43.2,-341.42"
         style="fill:#fb6260;fill-opacity:1;fill-rule:nonzero;stroke:none"
         id="path234" /><path
         d="M 12857.2,1897.09 H 12452 c -27.2,0 -49.2,22.04 -49.2,49.25 0,27.19 22,49.22 49.2,49.22 h 405.2 c 27.2,0 49.3,-22.03 49.3,-49.22 0,-27.21 -22.1,-49.25 -49.3,-49.25"
         style="fill:#832625;fill-opacity:1;fill-rule:nonzero;stroke:none"
         id="path236" /><path
         d="m 11519.1,1712.36 h 64.9 v 935.63 h -64.9 v -935.63"
         style="fill:#442b60;fill-opacity:1;fill-rule:nonzero;stroke:none"
         id="path238" /><path
         d="m 11584,1712.36 177.1,-43.07 c 18.7,-4.57 15.4,-32.18 -3.9,-32.18 h -421.4 c -19.4,0 -22.6,27.85 -3.6,32.22 l 186.9,43.03 h 64.9"
         style="fill:#442b60;fill-opacity:1;fill-rule:nonzero;stroke:none"
         id="path240" /><path
         d="m 12037.4,3507.82 c -39,-323.79 -107.4,-611.05 -66.5,-834.63 h -831.6 l 0.2,2.15 c 28.7,346.8 -30.1,583.88 -83.5,827.79 -13.7,137.6 94.4,257.23 232.9,257.23 h 515.2 c 136.7,0 244.1,-116.38 233.3,-252.54"
         style="fill:#8755c0;fill-opacity:1;fill-rule:nonzero;stroke:none"
         id="path242" /><path
         d="m 12003.8,2599.08 c 0,-111.73 -78,-124.99 -103.7,-137.57 -20.8,-10.15 -492.5,-131.33 -521.7,-143.82 -16.2,-0.57 -529.6,74.71 -529.6,74.71 0,0 284,300.93 300.3,300.93 h 788.6 c 49.9,0 66.1,-44.06 66.1,-94.25"
         style="fill:#8755c0;fill-opacity:1;fill-rule:nonzero;stroke:none"
         id="path244" /><path
         d="m 11823,2682.44 -683.5,-7.1 c 28.7,346.8 -30.1,583.88 -83.5,827.79 -13.7,137.6 94.4,257.23 232.9,257.23 h 392.7 C 12000,3707.6 11859,2954.52 11823,2682.44"
         style="fill:#442b60;fill-opacity:1;fill-rule:nonzero;stroke:none"
         id="path246" /><path
         d="m 11693.1,3856.92 c -12.3,36.14 -12.6,75.26 -22.2,112.15 -19.7,75.4 -82,138.81 -157.7,157.15 -75.8,18.34 -161.6,-10.65 -208.5,-72.87 -48.8,-64.7 -52.4,-151.36 -71.7,-230.07 -7.3,-30.05 -17.2,-62.06 -6.5,-91.11 24.9,-67.82 118.2,-95.71 181.7,-90.22 l 131.4,2.77 c 49.7,1.21 87.1,-17.05 132.6,3.04 45.5,20.09 64.8,40.45 63.7,90.16 -0.8,42.46 -29.2,78.81 -42.8,119"
         style="fill:#0c133c;fill-opacity:1;fill-rule:nonzero;stroke:none"
         id="path248" /><path
         d="m 11332.6,3306.11 c 0,0 -45.6,-127.43 -96,-201.86 -3.8,-5.55 -7.5,-10.74 -11.3,-15.63 -59.3,-76.72 -291.3,-257.44 -304.8,-253.06 -107.1,34.78 -264.9,-15.61 -194.5,42.93 48.1,39.64 119.4,70.87 190.8,43.54 88.8,81.61 137,181.22 204,259.73 6.2,14.16 11.9,27.8 17.4,41.3 54.1,135.56 74.8,240.75 166.8,330.97 6.7,6.49 17.6,12.84 25.1,19.18 l -3.2,-33.81 5.7,-233.29"
         style="fill:#fdc5ae;fill-opacity:1;fill-rule:nonzero;stroke:none"
         id="path250" /><path
         d="m 11332.6,3306.11 c 0,0 -45.6,-127.43 -96,-201.86 l -98.4,118.81 c 54.1,135.56 74.8,240.75 166.8,330.97 l 21.9,-14.63 5.7,-233.29"
         style="fill:#6bbbad;fill-opacity:1;fill-rule:nonzero;stroke:none"
         id="path252" /><path
         d="m 11496.6,2889.4 v -110.54 l -416.3,-238.15 c -2,-3.9 -4.1,-7.79 -6,-11.54 -48.8,-93.8 -93.2,-167.42 -136.2,-227.75 -59.5,-83.55 -125,-322.02 -186.1,-371.45 l -114.3,1.93 c 102.6,206.14 220.4,659.85 244.9,717.56 3.4,7.81 8.5,15.93 15.1,24.24 68,85.65 292.8,192.46 335.7,212.46 l 3.6,1.61 2.6,1.15 1,0.48 h 256"
         style="fill:#e8ae97;fill-opacity:1;fill-rule:nonzero;stroke:none"
         id="path254" /><path
         d="m 11697,2587.86 c -95.4,-100.96 -452.7,-153.3 -499.2,-159.78 -3.2,-0.51 -5,-0.68 -5,-0.68 -42.4,-153.28 -142.9,-459.58 -283.9,-601.5 l -6.8,-99.96 -107.5,101.88 c 47.8,84.05 112.4,374.61 143.5,473.6 34.2,108.77 62.5,209.23 93.8,262.54 5.6,9.6 11.3,17.72 17.2,24.06 72,77.87 331.9,188.41 331.9,188.41 l 91.9,112.97 23.7,-0.82 200.4,-6.81 c 0,0 104.9,-182.74 0,-293.91"
         style="fill:#fdc5ae;fill-opacity:1;fill-rule:nonzero;stroke:none"
         id="path256" /><path
         d="m 11697,2587.86 c -28.4,-30.08 -80.1,-55.77 -139.9,-77.38 -141,-50.71 -326.6,-77.86 -359.3,-82.4 -113.8,55.91 -257.8,144.83 -300.1,245.62 68,85.65 292.8,192.46 335.7,212.46 l 3.6,1.61 2.6,1.15 1,0.48 h 256 v -0.82 l 200.4,-6.81 c 0,0 0.4,-0.5 0.9,-1.48 9.5,-17.38 98.4,-187.1 -0.9,-292.43"
         style="fill:#8ffae6;fill-opacity:1;fill-rule:nonzero;stroke:none"
         id="path258" /><path
         d="m 10752,1929.97 13.5,-44.39 c 10.1,-32.93 13.2,-67.6 8.9,-101.79 l -11.6,-94.8 -29.1,-1.42 -26.5,128.38 -50.5,-91.91 c -11.7,-21.22 -32.7,-35.83 -56.7,-38.8 -69.3,-8.57 -199.7,-10.21 -205.1,34.13 -5.7,46.22 124,48.18 161.9,99 36.7,49.16 80.9,113.53 80.9,113.53 l 114.3,-1.93"
         style="fill:#0c133c;fill-opacity:1;fill-rule:nonzero;stroke:none"
         id="path260" /><path
         d="m 11690.7,2868.26 -450.1,31.05 c 0,0 139.1,183.7 39.1,338.78 -57.6,89.09 -4.7,164.83 -3.4,235.38 1.2,64.69 9.5,68.59 73.3,78.83 l 70.8,62.44 1.7,50.55 4.1,119.14 109.4,-7.63 -7.5,-82.75 -2.1,-23.06 -3.7,-42.29 c 85.2,-2.43 151.7,-16.58 197.8,-43.71 0,0 -72.6,-135.9 -91.5,-298.79 -22.8,-196.19 62.1,-417.94 62.1,-417.94"
         style="fill:#fdc5ae;fill-opacity:1;fill-rule:nonzero;stroke:none"
         id="path262" /><path
         d="m 10908.9,1825.9 13.6,-44.41 c 10.1,-32.92 13.1,-67.59 8.9,-101.77 l -11.7,-94.82 -29,-1.41 -26.5,128.39 -50.5,-91.92 c -11.7,-21.21 -32.7,-35.81 -56.8,-38.8 -69.3,-8.56 -199.6,-10.21 -205.1,34.13 -5.7,46.22 124.1,48.19 162,98.99 36.7,49.18 80.8,113.54 80.8,113.54 l 114.3,-1.92"
         style="fill:#0c133c;fill-opacity:1;fill-rule:nonzero;stroke:none"
         id="path264" /><path
         d="m 11535.6,3776.8 -7.5,-82.75 c -12.2,-32.13 -67,-31.45 -106,-28.76 l 4.1,119.14 109.4,-7.63"
         style="fill:#be9483;fill-opacity:1;fill-rule:nonzero;stroke:none"
         id="path266" /><path
         d="m 11430.9,3683.22 c -49.6,5.65 -109,40.38 -130.1,143.48 -24.2,117.94 9.8,120.01 9.8,120.01 0,0 72.8,-29.46 142.5,51.25 0,0 35,-91.02 76.9,-125.98 0,0 45.2,41.64 51.7,3.01 6.5,-38.64 -28.2,-66.8 -28.2,-66.8 0,0 -28,-135.76 -122.6,-124.97"
         style="fill:#fdc5ae;fill-opacity:1;fill-rule:nonzero;stroke:none"
         id="path268" /><path
         d="m 11707.8,2860.29 c -35.2,2.45 -68.8,2.62 -101.1,1.8 -152.5,-4.54 -276.2,-34.46 -378.3,21.79 54.3,103.21 74.2,241.77 33.1,374.52 -71.6,231.41 13.9,298.87 159.4,372.02 0.4,-94.12 93.6,-97.93 101.4,-1.72 85.2,-2.43 151.7,-16.58 197.8,-43.71 0,0 -33.5,-62.6 -60.9,-153.95 -12.9,-43.07 -24.6,-92.5 -30.6,-144.84 -22.8,-196.19 79.2,-425.91 79.2,-425.91"
         style="fill:#8ffae6;fill-opacity:1;fill-rule:nonzero;stroke:none"
         id="path270" /><path
         d="m 11697,2587.87 c -28.4,-30.08 -80.1,-55.75 -139.9,-77.37 165.1,171 91.1,261.81 75.3,351.45 -42.7,241.28 -120,340.64 -44.6,541.95 l 71.4,27.14 c -12.9,-43.07 -24.6,-92.48 -30.6,-144.82 -20.8,-179.63 62.9,-387.38 77,-421.19 1.5,-3.08 2.2,-4.73 2.2,-4.73 23.9,-51.52 72.1,-184.49 -10.8,-272.43"
         style="fill:#6bbbad;fill-opacity:1;fill-rule:nonzero;stroke:none"
         id="path272" /><path
         d="m 11915.4,3080.65 c -10.6,-108.57 -563.5,-175.8 -563.5,-175.8 -65.8,-12.35 -116.6,-97.2 -134.9,-67.46 -59.2,96.57 32.6,133.3 121.4,134.78 l 395.1,196.75 -34.5,43.57 -75.9,96.41 c -79.5,95.89 -23.4,361.68 96.9,276.18 43.9,-31.2 105.5,-157.2 147.8,-279.45 31.2,-90.37 52.1,-178.81 47.6,-224.98"
         style="fill:#fdc5ae;fill-opacity:1;fill-rule:nonzero;stroke:none"
         id="path274" /><path
         d="m 11867.8,3305.63 c -51.6,-30.87 -130.9,-73.14 -168.8,-93.14 l -75.9,96.41 c -79.5,95.89 -23.4,361.68 96.9,276.18 43.9,-31.2 105.5,-157.2 147.8,-279.45"
         style="fill:#6bbbad;fill-opacity:1;fill-rule:nonzero;stroke:none"
         id="path276" /><path
         d="m 11311.6,4061.9 c 0,0 14.7,93.34 64.2,130.68 27,20.35 178.8,25.14 205.7,-11.44 29.4,-39.92 49.5,-132.42 49.5,-132.42 -81.3,67.74 -213.7,81.91 -319.4,13.18"
         style="fill:#8ffae6;fill-opacity:1;fill-rule:nonzero;stroke:none"
         id="path278" /><path
         d="m 11564.8,3460.48 h -118.3 v 24.42 h 118.3 v -24.42"
         style="fill:#ffffff;fill-opacity:1;fill-rule:nonzero;stroke:none"
         id="path280" /><path
         d="m 12204.5,1512.84 h 24.8 V 2774.3 h -24.8 V 1512.84"
         style="fill:#999999;fill-opacity:1;fill-rule:nonzero;stroke:none"
         id="path282" /><path
         d="m 11704.4,1512.84 h 24.7 V 2774.3 h -24.7 V 1512.84"
         style="fill:#999999;fill-opacity:1;fill-rule:nonzero;stroke:none"
         id="path284" /><path
         d="m 9742.3,1512.84 h 24.7891 V 2774.3 H 9742.3 Z"
         style="fill:#999999;fill-opacity:1;fill-rule:nonzero;stroke:none"
         id="path286" /><path
         d="m 10178.3,1512.84 h 24.699 V 2774.3 h -24.699 z"
         style="fill:#999999;fill-opacity:1;fill-rule:nonzero;stroke:none"
         id="path288" /><path
         d="M 9625.49,2701.12 H 12353 v 146.379 H 9625.49 Z"
         style="fill:#48b3e0;fill-opacity:1;fill-rule:nonzero;stroke:none"
         id="path290" /><path
         d="m 10190.7,2701.12 h -565.21 v 146.38 h 565.21 v -146.38"
         style="fill:#3a8fb3;fill-opacity:1;fill-rule:nonzero;stroke:none"
         id="path292" /><path
         d="m 11264.6,3033.93 h -616.8 c -28.8,0 -52.8,21.96 -55.4,50.66 l -35.8,397 c -3,32.58 22.7,60.65 55.4,60.65 h 616.8 c 28.8,0 52.8,-21.98 55.4,-50.65 l 35.8,-397.01 c 3,-32.58 -22.7,-60.65 -55.4,-60.65"
         style="fill:#303635;fill-opacity:1;fill-rule:nonzero;stroke:none"
         id="path294" /><path
         d="m 10966.2,2864.02 h -144.1 l 32.5,277.78 c 1.7,14.69 14.1,25.79 28.9,25.79 h 85.3 c 17.5,0 31,-15.21 29,-32.54 l -31.6,-271.03"
         style="fill:#303635;fill-opacity:1;fill-rule:nonzero;stroke:none"
         id="path296" /><path
         d="m 11344.5,2847.5 h -809.1 c -4.7,0 -8.5,3.82 -8.5,8.54 v 28.74 c 0,4.72 3.8,8.55 8.5,8.55 h 809.1 c 4.7,0 8.6,-3.83 8.6,-8.55 v -28.74 c 0,-4.72 -3.9,-8.54 -8.6,-8.54"
         style="fill:#303635;fill-opacity:1;fill-rule:nonzero;stroke:none"
         id="path298" /><path
         d="m 7986.25,3926.88 h -723.46 v 927.61 h 723.46 v -927.61"
         style="fill:#4f7080;fill-opacity:1;fill-rule:nonzero;stroke:none"
         id="path300" /><path
         d="m 7940.02,3986.16 h -631 v 809.05 h 631 v -809.05"
         style="fill:#728d99;fill-opacity:1;fill-rule:nonzero;stroke:none"
         id="path302" /><path
         d="m 7419.51,4824.19 -15.78,8.75 221.51,399.71 185.32,-400.3 -16.38,-7.57 -170.38,368.07 -204.29,-368.66"
         style="fill:#4f7080;fill-opacity:1;fill-rule:nonzero;stroke:none"
         id="path304" /><path
         d="m 7679.13,4579.3 c -37.37,0 -57.16,-11.58 -71.98,-10.99 -14.3,0.54 -36.27,10.99 -73.09,10.99 -58.25,0 -93.42,-39.34 -93.42,-93.76 0,-86.53 65.46,-249.14 104.41,-249.14 49.45,0 37.35,87.57 62.1,86.54 24.77,-1.02 11.52,-86.54 60.99,-86.54 49.76,0 105.51,163.37 105.51,249.14 0,54.42 -36.29,93.76 -94.52,93.76"
         style="fill:#ffffff;fill-opacity:1;fill-rule:nonzero;stroke:none"
         id="path306" /><path
         d="m 4874.73,5878.62 c 0,37.16 30.41,67.29 67.93,67.29 37.52,0 67.95,-30.13 67.95,-67.29 0,-37.16 -30.43,-67.29 -67.95,-67.29 -37.52,0 -67.93,30.13 -67.93,67.29"
         style="fill:#efd6d4;fill-opacity:1;fill-rule:nonzero;stroke:none"
         id="path308" /><path
         d="M 4959.53,8986.02 V 6220.99 h -38.18 v 2765.03 h 38.18"
         style="fill:#31363a;fill-opacity:1;fill-rule:nonzero;stroke:none"
         id="path310" /><path
         d="m 4703.08,5878.62 c 0,0 35.92,342.4 237.4,342.4 208.79,0 241.78,-342.4 241.78,-342.4 h -479.18"
         style="fill:#fb6260;fill-opacity:1;fill-rule:nonzero;stroke:none"
         id="path312" /><path
         d="m 10518.9,5920.21 c 0,37.16 30.4,67.29 67.9,67.29 37.6,0 68,-30.13 68,-67.29 0,-37.16 -30.4,-67.28 -68,-67.28 -37.5,0 -67.9,30.12 -67.9,67.28"
         style="fill:#efd6d4;fill-opacity:1;fill-rule:nonzero;stroke:none"
         id="path314" /><path
         d="M 10603.7,8958.49 V 6262.64 h -38.2 v 2698.71 c 12.8,-1 25.6,-1.87 38.2,-2.86"
         style="fill:#31363a;fill-opacity:1;fill-rule:nonzero;stroke:none"
         id="path316" /><path
         d="m 10347.2,5920.21 c 0,0 36,342.4 237.4,342.4 208.8,0 241.8,-342.4 241.8,-342.4 h -479.2"
         style="fill:#fb6260;fill-opacity:1;fill-rule:nonzero;stroke:none"
         id="path318" /><path
         d="m 7577.87,5920.21 c 0,37.16 30.41,67.29 67.95,67.29 37.52,0 67.95,-30.13 67.95,-67.29 0,-37.16 -30.43,-67.28 -67.95,-67.28 -37.54,0 -67.95,30.12 -67.95,67.28"
         style="fill:#efd6d4;fill-opacity:1;fill-rule:nonzero;stroke:none"
         id="path320" /><path
         d="M 7662.7,8986.02 V 6262.64 h -38.19 v 2723.38 h 38.19"
         style="fill:#31363a;fill-opacity:1;fill-rule:nonzero;stroke:none"
         id="path322" /><path
         d="m 7406.23,5920.21 c 0,0 35.93,342.4 237.39,342.4 208.79,0 241.77,-342.4 241.77,-342.4 h -479.16"
         style="fill:#fb6260;fill-opacity:1;fill-rule:nonzero;stroke:none"
         id="path324" /><path
         d="m 4663.42,4801.28 c 0,179 145.12,324.11 324.12,324.11 179.01,0 324.14,-145.11 324.14,-324.11 0,-179.02 -145.13,-324.14 -324.14,-324.14 -179,0 -324.12,145.12 -324.12,324.14"
         style="fill:#4f7080;fill-opacity:1;fill-rule:nonzero;stroke:none"
         id="path326" /><path
         d="m 4712.21,4801.28 c 0,152.06 123.27,275.32 275.33,275.32 152.07,0 275.33,-123.26 275.33,-275.32 0,-152.07 -123.26,-275.33 -275.33,-275.33 -152.06,0 -275.33,123.26 -275.33,275.33"
         style="fill:#ffffff;fill-opacity:1;fill-rule:nonzero;stroke:none"
         id="path328" /><path
         d="m 4960.9,4801.28 c 0,14.69 11.93,26.63 26.64,26.63 14.71,0 26.64,-11.94 26.64,-26.63 0,-14.73 -11.93,-26.65 -26.64,-26.65 -14.71,0 -26.64,11.92 -26.64,26.65"
         style="fill:#4f7080;fill-opacity:1;fill-rule:nonzero;stroke:none"
         id="path330" /><path
         d="m 5006.84,4815.38 c -1.08,0 -2.15,0.42 -2.97,1.24 -1.64,1.64 -1.64,4.29 0,5.93 l 87.18,87.19 c 1.64,1.62 4.3,1.62 5.94,0 1.63,-1.64 1.63,-4.31 0,-5.94 l -87.19,-87.18 c -0.82,-0.82 -1.89,-1.24 -2.96,-1.24"
         style="fill:#4f7080;fill-opacity:1;fill-rule:nonzero;stroke:none"
         id="path332" /><path
         d="m 4987.54,4579.77 c -2.32,0 -4.18,1.88 -4.18,4.19 v 190.67 c 0,2.31 1.86,4.21 4.18,4.21 2.31,0 4.2,-1.9 4.2,-4.21 v -190.67 c 0,-2.31 -1.89,-4.19 -4.2,-4.19"
         style="fill:#4f7080;fill-opacity:1;fill-rule:nonzero;stroke:none"
         id="path334" /></g></g></svg>
